<svg id="Camada_1" data-name="Camada 1" xmlns="http://www.w3.org/2000/svg" viewBox="0 0 624 90.7"><title>overwatch-name-white</title><path d="M296.05,70.86h11.28l12.19-25.59,11.25,25.59h11.79c3.8-7.84,9-17.06,12.07-25l10.79-26.13-16.8.06-10.68,26-11.79-26H314.46L302.63,45.09l-8.1-19a52.93,52.93,0,0,0-2.74-6.41H273.63Z" style="fill:#fff;fill-rule:evenodd"/><path d="606.82 19.69 624 19.69 624 71.47 606.82 71.47 606.82 51.94 574.43 51.94 574.43 71.47 557.25 71.47 557.25 19.69 574.43 19.69 574.43 38.12 606.82 38.12 606.82 19.69" style="fill:#fff;fill-rule:evenodd"/><path d="400.38 19.69 386.87 19.69 352.4 71.15 372.72 71.08 393.63 38.62 414.67 71.71 433.75 71.71 400.38 19.69" style="fill:#fff;fill-rule:evenodd"/><path d="M420.71,33.33h23.08V71.47h17.26l0-38.13h17.8c3.07-4.57,6.4-9.09,9.47-13.65H420.72V33.33Z" style="fill:#fff;fill-rule:evenodd"/><path d="99.64 71.47 112.25 71.47 146.6 20.3 126.29 20.37 106.86 51.61 86.71 20.37 67.62 20.37 99.64 71.47" style="fill:#fff;fill-rule:evenodd"/><path d="145.51 32.66 145.51 71.47 199.26 71.47 199.26 58.01 162.26 58 162.26 51.06 187.84 51.06 187.84 40.16 162.26 40.16 162.26 33.18 199.26 33.26 199.26 20.35 153.77 20.35 145.51 32.66" style="fill:#fff;fill-rule:evenodd"/><path d="M485.3,37.44V61.49c0,3.5,4.2,10,11.11,10H532.3c10.79,0,17.18-3,17.06-13.64l-.06-5.89h-17V58H502.8V33.33h29.5v5.41h17.06V32.31c0-5.67-3.94-12.61-14.34-12.61H496.53C494.8,23,485.3,35.19,485.3,37.44Z" style="fill:#fff;fill-rule:evenodd"/><path d="M207.3,71.47h18.33V34h27.66v8l-19.57,0V52.15L255,71.47H278l-21-19.56c11.3.33,13.22-5.52,13.22-10.63V30.57c0-7-5.45-10.28-12.6-10.28h-50.4V71.47Z" style="fill:#fff;fill-rule:evenodd"/><path d="M0,34,0,60.24c.06,4.41,2.52,7.45,6.83,10.33L18.2,58l.13-24H50.4V58L25.72,58,14.35,71.38l42.73.09c3.27,0,11.06-4.33,11.06-11.23V33.81c-2.42-3.85-6.54-10-8.83-13.45l-45.57-.07C4.89,20.3,0,25.17,0,34Z" style="fill:#fff;fill-rule:evenodd"/><path d="M93.81,19.23H121.3L107.56,0Z" style="fill:#ef7d00;fill-rule:evenodd"/><path d="M407.44,71.47H380L393.7,90.7Z" style="fill:#ef7d00;fill-rule:evenodd"/></svg>