<svg width="233" height="140" viewBox="0 0 233 140" fill="none" xmlns="http://www.w3.org/2000/svg">
<g clip-path="url(#clip0_2427_1310)">
<path d="M127.265 121.179L123.21 130.775L119.016 121.179H114.589L110.395 130.636L106.388 121.179H99.6774L108.019 140H112.213L116.5 130.543L120.694 140H125.214L133.462 121.179H127.265Z" fill="#333F49"/>
<path d="M221.07 127.808H209.514V121.179H203.036V140H209.514V132.722H221.07V140H227.501V121.179H221.07V127.808Z" fill="#333F49"/>
<path d="M141.151 121.179L128.476 140H135.466L143.342 127.901L151.17 140H158.393L146.044 121.179H141.151Z" fill="#333F49"/>
<path d="M46.0408 121.179L38.8644 132.629L31.7812 121.179H24.465L36.3946 140H40.8216L53.1706 121.179H46.0408Z" fill="#333F49"/>
<path d="M153.407 121.179V126.139H161.609V140H168.086V126.139H174.564L177.872 121.179H153.407Z" fill="#333F49"/>
<path d="M21.8554 121.503C21.1273 121.298 20.3753 121.189 19.6186 121.179H5.3124C2.0504 121.179 7.97365e-07 122.848 7.97365e-07 125.444V135.735C-0.00417969 136.48 0.203701 137.21 0.599567 137.842C0.995434 138.473 1.56309 138.981 2.2368 139.305H2.5164L6.4308 135.318V126.046H18.64V134.947H9.6462L4.66 140H19.6186C22.7408 140 24.931 138.238 24.931 135.735V126L21.9952 121.364L21.8554 121.503Z" fill="#333F49"/>
<path d="M195.021 121.179H182.113H181.088L180.528 122.06L176.987 127.391V135.642C176.987 138.146 179.177 139.907 182.299 139.907H195.207C195.824 139.978 196.448 139.925 197.043 139.753C197.639 139.58 198.194 139.291 198.675 138.903C199.157 138.514 199.556 138.034 199.849 137.49C200.141 136.946 200.322 136.349 200.38 135.735V132.49H193.903V135.04H183.231V126.139H193.903V128.318H200.38V125.49C200.38 122.894 198.236 121.179 195.021 121.179Z" fill="#333F49"/>
<path d="M52.8444 125.907V140H72.8824V135.04H59.2752V132.676H68.4554V128.364H59.2752V126.139H72.8824V121.179H56.1064L52.8444 125.907Z" fill="#333F49"/>
<path d="M98.5124 129.523V125.166C98.5124 122.755 96.6484 121.271 93.6194 121.271H75.725V140H82.1558V126.093H92.268V129.199H85.0916V133L93.2 140H102.054L93.899 132.954C96.0426 132.861 98.5124 131.748 98.5124 129.523Z" fill="#333F49"/>
<path d="M232.161 122.291C232.168 122.233 232.162 122.174 232.144 122.117C232.126 122.061 232.096 122.01 232.056 121.966C232.017 121.922 231.968 121.887 231.914 121.863C231.86 121.84 231.801 121.827 231.742 121.828H231.136V123.311V122.755H231.462L231.788 123.311L231.462 122.755C231.524 122.847 231.62 122.911 231.729 122.933C231.839 122.955 231.952 122.932 232.045 122.871C232.137 122.809 232.202 122.714 232.224 122.605C232.245 122.496 232.223 122.384 232.161 122.291ZM231.322 122.616V122.013H231.695C231.734 122.004 231.774 122.005 231.812 122.016C231.85 122.027 231.885 122.047 231.913 122.075C231.941 122.103 231.961 122.137 231.972 122.175C231.983 122.213 231.984 122.253 231.975 122.291C231.975 122.291 231.975 122.616 231.695 122.616H231.322Z" fill="#333F49"/>
<path d="M231.602 121.179C231.326 121.179 231.055 121.26 230.825 121.413C230.595 121.566 230.416 121.783 230.31 122.037C230.205 122.291 230.177 122.571 230.231 122.841C230.285 123.111 230.418 123.358 230.613 123.553C230.809 123.747 231.058 123.88 231.329 123.934C231.6 123.987 231.882 123.96 232.137 123.854C232.392 123.749 232.611 123.571 232.764 123.342C232.918 123.114 233 122.845 233 122.57C233 122.201 232.853 121.847 232.591 121.586C232.328 121.325 231.973 121.179 231.602 121.179ZM231.602 123.775C231.362 123.775 231.128 123.704 230.929 123.572C230.73 123.439 230.574 123.251 230.483 123.031C230.391 122.811 230.367 122.568 230.414 122.334C230.46 122.101 230.576 121.886 230.745 121.717C230.915 121.549 231.131 121.434 231.366 121.387C231.601 121.341 231.844 121.365 232.066 121.456C232.287 121.547 232.476 121.702 232.609 121.9C232.743 122.098 232.814 122.331 232.814 122.57C232.814 122.889 232.686 123.196 232.459 123.422C232.232 123.648 231.923 123.775 231.602 123.775Z" fill="#333F49"/>
<path d="M106.062 14.8808C115.123 14.8938 123.87 18.1897 130.666 24.1523L141.245 13.5828C131.612 4.9047 119.08 0.0987549 106.085 0.0987549C93.0893 0.0987549 80.5578 4.9047 70.9252 13.5828L81.5034 24.1523C88.2877 18.2002 97.0159 14.905 106.062 14.8808Z" fill="#333F49"/>
<path d="M106.062 104.212C116.268 104.225 126.256 101.271 134.798 95.7137C143.339 90.1562 150.063 82.2373 154.142 72.93C158.221 63.6228 159.478 53.3328 157.758 43.3247C156.037 33.3166 151.416 24.0264 144.46 16.596L133.835 27.1655C139.098 32.9307 142.402 40.1976 143.28 47.9358C144.159 55.674 142.566 63.4908 138.728 70.2781L117.758 50.1589L108.438 27.4437V61.5629L129.222 81.4503C122.659 86.5669 114.562 89.3474 106.225 89.3474C97.887 89.3474 89.7899 86.5669 83.2276 81.4503L104.011 61.5629V27.4437L94.6912 50.1589L73.6746 70.2781C70.6012 64.7103 68.9979 58.4579 69.0146 52.1059C69.0028 42.8889 72.4417 33.9977 78.6608 27.1655L67.7564 16.596C60.8062 24.0207 56.186 33.3023 54.4628 43.3018C52.7396 53.3014 53.9884 63.5839 58.0559 72.8875C62.1234 82.1911 68.8326 90.1111 77.3603 95.6755C85.888 101.24 95.8631 104.207 106.062 104.212Z" fill="#333F49"/>
<path d="M148.095 91.2318L152.755 96.0993C158.585 89.9489 163.145 82.7195 166.176 74.8212H193.39C194.552 74.8212 195.666 74.3621 196.487 73.5449C197.309 72.7277 197.77 71.6193 197.77 70.4636V33.7947C197.809 33.1995 197.724 32.6028 197.521 32.0416C197.318 31.4804 197.001 30.9666 196.591 30.532C196.18 30.0974 195.684 29.7513 195.133 29.5151C194.583 29.279 193.99 29.1577 193.39 29.1589H166.409C163.378 21.2607 158.818 14.0312 152.988 7.8808L148.328 12.5166C158.331 23.1142 163.899 37.1052 163.899 51.6424C163.899 66.1796 158.331 80.1705 148.328 90.7682L148.095 91.2318ZM171.395 40.2384C172.06 38.9666 173.196 38.0023 174.564 37.5497H175.682H186.4C187.346 37.5474 188.259 37.8943 188.963 38.5232L183.557 43.3907H176.521V46.8676H170.276V44.0861C170.244 42.6741 170.599 41.28 171.302 40.053L171.395 40.2384ZM169.671 63.4172C169.66 62.096 170.123 60.8142 170.975 59.8013C171.515 59.1954 172.09 58.6226 172.7 58.0861L191.06 40.5629C191.218 40.9694 191.343 41.388 191.433 41.8146C191.478 42.1841 191.478 42.5576 191.433 42.9272C191.433 43.7152 191.433 44.5497 191.433 45.3378C191.356 46.5642 190.919 47.7412 190.175 48.7219C189.617 49.3991 189.009 50.0344 188.357 50.6225L177.499 60.8212H192.318V62.2119C192.38 63.021 192.228 63.8321 191.877 64.5643C191.525 65.2965 190.986 65.924 190.314 66.3841C189.724 66.7839 189.025 66.9943 188.311 66.9868H169.671V63.4172Z" fill="#EF6623"/>
<path d="M190.314 66.3841C190.986 65.924 191.525 65.2965 191.877 64.5643C192.228 63.8321 192.38 63.021 192.318 62.2119V60.8212H177.499L188.357 50.6225C189.009 50.0344 189.617 49.3991 190.175 48.7219C190.919 47.7412 191.356 46.5642 191.433 45.3378C191.433 44.5497 191.433 43.7152 191.433 42.9272C191.478 42.5577 191.478 42.1841 191.433 41.8146C191.343 41.388 191.218 40.9694 191.06 40.5629L172.42 57.8543C171.811 58.3908 171.235 58.9636 170.696 59.5695C169.843 60.5825 169.38 61.8642 169.391 63.1854V67.0331H188.031C188.845 67.0885 189.653 66.8589 190.314 66.3841Z" fill="white"/>
<path d="M176.521 46.8675V43.3907H183.557L189.056 38.1986C188.351 37.4971 187.397 37.0978 186.4 37.0861H175.589H174.47C173.103 37.5387 171.967 38.503 171.302 39.7748C170.599 41.0018 170.244 42.3959 170.276 43.8079V46.5894L176.521 46.8675Z" fill="white"/>
<path d="M144.18 96.053V95.5431H144.553L144.879 96.053L144.553 95.4967C144.651 95.4661 144.737 95.404 144.796 95.3202C144.855 95.2363 144.884 95.1354 144.879 95.0331C144.879 94.755 144.879 94.6159 144.413 94.6159H143.808L144.18 96.053ZM144.18 94.755H144.6C144.678 94.7662 144.749 94.8053 144.801 94.865C144.852 94.9247 144.88 95.0009 144.879 95.0795C144.879 95.1533 144.85 95.224 144.798 95.2762C144.745 95.3283 144.674 95.3576 144.6 95.3576H144.46L144.18 94.755Z" fill="#333F49"/>
<path d="M143.295 95.3113C143.258 95.5119 143.265 95.7183 143.317 95.9157C143.369 96.1131 143.464 96.2968 143.595 96.4537C143.726 96.6105 143.891 96.7367 144.076 96.8233C144.262 96.91 144.465 96.9549 144.67 96.9549C144.875 96.9549 145.077 96.91 145.263 96.8233C145.449 96.7367 145.613 96.6105 145.744 96.4537C145.876 96.2968 145.97 96.1131 146.022 95.9157C146.074 95.7183 146.082 95.5119 146.044 95.3113C145.985 94.9917 145.815 94.7029 145.564 94.4951C145.313 94.2872 144.996 94.1734 144.67 94.1734C144.343 94.1734 144.027 94.2872 143.776 94.4951C143.524 94.7029 143.354 94.9917 143.295 95.3113ZM145.905 95.3113C145.914 95.5514 145.851 95.7889 145.723 95.9931C145.596 96.1973 145.41 96.359 145.19 96.4573C144.969 96.5557 144.725 96.5863 144.486 96.5452C144.248 96.504 144.028 96.393 143.854 96.2265C143.68 96.0599 143.56 95.8453 143.509 95.6104C143.459 95.3754 143.48 95.1307 143.57 94.9077C143.66 94.6848 143.815 94.4937 144.015 94.3591C144.215 94.2245 144.451 94.1525 144.693 94.1523C145.006 94.1521 145.308 94.2727 145.534 94.4888C145.76 94.7049 145.893 94.9997 145.905 95.3113Z" fill="#333F49"/>
</g>
<defs>
<clipPath id="clip0_2427_1310">
<rect width="233" height="140" fill="white"/>
</clipPath>
</defs>
</svg>
