<svg width="322" height="28" viewBox="0 0 322 28" fill="none" xmlns="http://www.w3.org/2000/svg">
<path fill-rule="evenodd" clip-rule="evenodd" d="M152.539 27.1264H158.35L164.63 13.9444L170.425 27.1264H176.5C178.46 23.0903 181.117 18.3356 182.717 14.2244L188.278 0.762483L179.621 0.795902L174.119 14.1659L168.044 0.758301H162.023L155.927 13.8525L151.753 4.05901C151.097 2.4379 151.039 2.07858 150.341 0.758301H140.986L152.539 27.1264ZM312.657 0.762483H321.51V27.4397H312.657V17.3788H295.969V27.4397H287.116V0.762483H295.969V10.2593H312.657V0.762483ZM206.294 0.762483H199.329L181.572 27.2768L192.039 27.2392L202.814 10.5184L213.652 27.5651H223.487L206.294 0.762483ZM216.769 7.79006H228.66V27.4397H237.551L237.542 7.79424H246.713C248.293 5.44196 250.01 3.11476 251.589 0.762483H216.773V7.79006H216.769ZM51.3407 27.4397H57.8334L75.5361 1.07584L65.0699 1.11344L55.0592 17.2075L44.6766 1.11344H34.8413L51.3407 27.4397ZM74.9721 7.44746V27.4397H102.669V20.5083L83.604 20.4999V16.9276H96.7818V11.3122H83.604V7.71486L102.669 7.75246V1.10508H79.2296L74.9721 7.44746ZM250.043 9.90837V22.3007C250.043 24.1056 252.212 27.4397 255.772 27.4397H274.264C279.821 27.4397 283.113 25.9105 283.055 20.4121L283.021 17.3788H274.264V20.4999L259.064 20.5083V7.79006H274.264V10.5769H283.055V7.26363C283.055 4.34313 281.024 0.766652 275.664 0.766652H255.834C254.94 2.44625 250.043 8.75103 250.043 9.90837ZM106.809 27.4397H116.252V8.14103H130.503V12.2606L120.422 12.2481V17.4875L131.381 27.4397H143.255L132.45 17.3621C138.275 17.5334 139.265 14.521 139.265 11.8888V6.3695C139.265 2.75544 136.457 1.07166 132.772 1.07166H106.805V27.4397H106.809ZM0 8.14103L0.0208906 21.6572C0.0501374 23.9301 1.32028 25.4927 3.53886 26.976L9.37569 20.5083L9.44254 8.14103H25.967V20.5041L13.253 20.5124L7.39526 27.398L29.4097 27.4397C31.0935 27.4397 35.1087 25.2128 35.1087 21.6572V8.04075C33.8636 6.05615 31.7411 2.87242 30.5587 1.10926L7.0819 1.07166C2.5194 1.07584 0 3.58689 0 8.14103Z" fill="#575756"/>
</svg>
