<svg width="37" height="36" viewBox="0 0 37 36" fill="none" xmlns="http://www.w3.org/2000/svg">
<path d="M31.6595 15.8752C33.5479 15.8912 34.1641 15.3551 34.3961 15.003C35.2763 13.8588 33.9 11.6582 30.6752 9.98584C31.9235 7.62529 32.7957 5.50478 33.2279 3.98442C33.4679 3.15223 33.3079 2.64811 33.2599 2.56009C33.1398 3.29626 32.1476 5.96889 29.8671 9.59375C28.1066 8.80157 25.8901 8.17742 23.2735 7.92136C22.6413 6.72907 20.8169 3.43229 19.0165 1.66388C17.8322 0.503601 16.888 0.0714991 16.1438 0.0154858C15.1676 -0.0965407 14.5514 0.423582 14.2154 0.791669C13.0071 2.09598 12.503 4.23248 12.4549 6.70507C11.9428 5.83286 11.2467 4.97666 10.4545 4.88064H10.4385C8.98212 4.63258 7.74183 6.93712 7.90987 10.594C5.21323 10.69 2.91668 11.0021 1.37232 11.3862C0.676154 11.5622 0.228048 11.8983 0.124023 12.0663C0.19604 12.0423 1.7004 11.4182 7.97388 11.4182C8.34197 15.1471 10.0624 18.5799 9.80631 17.9717C9.11815 19.052 7.11768 22.3568 6.47753 24.8454C6.06143 26.4537 6.17345 27.494 6.48553 28.1581C6.87762 29.0544 7.6378 29.3344 8.11792 29.4384C9.87833 29.8385 12.0148 29.1824 14.2154 27.9501C13.6872 28.8543 13.2391 29.9586 13.5752 30.7188C14.0873 32.1031 16.7039 32.0311 19.7927 30.0546C21.209 32.3191 22.6093 34.1276 23.7136 35.2638C23.8976 35.4559 24.0977 35.6239 24.3298 35.7599C24.6898 35.984 24.9299 36 24.9299 36C24.3538 35.5279 22.5373 33.3274 20.5289 29.5425C22.0892 28.4142 23.7376 26.8058 25.274 24.6693C33.908 24.9894 35.3484 22.9249 35.6844 22.4448C36.7247 21.0685 35.9325 18.4278 31.6595 15.8752ZM26.1862 23.349C27.8586 20.7004 28.3227 18.5799 28.2587 16.8515C30.2191 18.0838 31.5795 19.4921 31.7075 20.9884C31.7875 21.9007 31.1394 23.0369 26.1862 23.349ZM15.3596 27.2699C16.0478 26.8298 16.736 26.3497 17.4161 25.8296C17.8882 26.7658 18.3763 27.662 18.8645 28.5182C16.0078 30.0546 14.0233 29.4144 15.3596 27.2699ZM30.4832 15.2191C29.763 14.843 28.9949 14.4909 28.2027 14.1628C28.7628 13.3146 29.2989 12.4504 29.803 11.5702C32.5557 13.2666 33.0358 15.3071 30.4832 15.2191ZM19.7447 27.9981C19.3606 27.1979 18.9685 26.3417 18.5844 25.4375C21.6251 25.5255 22.9774 24.1172 23.0334 24.0052C23.0334 24.0132 21.273 25.1014 18.6324 24.8694C20.7849 23.0689 22.7854 21.0925 24.6178 18.964C25.234 18.2438 25.8181 17.5156 26.3702 16.7795C26.3462 16.7554 26.2582 16.5714 25.21 15.9393C21.5771 20.1803 18.0163 22.8289 15.8717 24.0932C14.4234 23.309 12.9991 21.8607 11.9508 19.7722C10.5425 16.9635 9.83832 13.9788 9.7343 11.6102C10.5985 11.6742 11.5107 11.7623 12.4629 11.8823C10.8946 14.4669 11.4547 16.3153 11.5187 16.4034C11.5187 16.3954 11.4547 14.3549 12.9351 12.2104C13.5672 15.8992 14.6235 19.5081 16.0798 22.9569C16.1438 22.9329 16.2078 23.0209 17.3921 22.3728C15.5437 17.1315 15.0155 12.6585 14.9995 10.1779C16.4079 9.30568 18.3843 8.78556 20.7369 8.92159C23.8736 9.10564 26.8103 9.99384 28.9148 11.0821C28.4107 11.8183 27.8666 12.5785 27.2744 13.3626C25.8181 10.706 23.9537 10.2739 23.8416 10.2899C23.8496 10.2899 25.6661 11.2822 26.7623 13.6107C24.1217 12.6425 21.4091 11.8983 18.6484 11.3782C17.7282 11.2101 16.808 11.0661 15.8798 10.9541C15.8717 10.9861 15.7517 11.0821 15.7277 12.3864C21.201 13.4027 25.338 15.1951 27.4905 16.4114C27.5465 18.0678 27.0024 20.0442 25.7061 22.0047C23.9777 24.6133 21.7371 26.7178 19.7447 27.9981ZM21.6731 7.81733C18.5364 7.6973 16.4959 8.33745 15.0155 9.27368C15.1596 5.59281 16.5119 3.90441 17.7042 3.97642C18.8885 3.67235 21.5611 7.64129 21.6731 7.81733ZM12.4789 8.03338C12.511 8.88158 12.591 9.76179 12.703 10.658C11.6788 10.602 10.6785 10.57 9.71829 10.57C9.71029 10.794 9.71029 6.98514 11.4547 7.08116H11.4627C11.8708 7.15317 12.2149 7.56127 12.4789 8.03338ZM10.5105 19.4281C11.9668 22.2207 13.5592 23.6851 15.0956 24.5173C11.8068 26.2617 9.64628 25.9256 9.12615 24.8374C9.11015 24.8134 8.34197 23.7491 10.5105 19.4281Z" fill="white"/>
</svg>
