<svg width="66" height="30" viewBox="0 0 66 30" fill="none" xmlns="http://www.w3.org/2000/svg">
<path fill-rule="evenodd" clip-rule="evenodd" d="M17.1521 24.7529C17.1521 24.7529 17.2904 25.353 17.6316 25.1269C17.9727 24.9011 18.111 24.5622 18.4521 24.5622C18.7932 24.5622 20.2152 24.2986 20.5563 24.5622C20.8974 24.8258 20.9316 24.5997 21.1021 24.5997C21.2727 24.5997 21.7737 24.6874 21.7737 24.6874C22.2098 24.6425 22.1209 23.959 21.8057 23.7589C21.3508 23.4076 20.7383 23.1818 20.2834 22.8301C20.2378 22.4912 20.1924 22.1524 20.147 21.8135C20.272 21.638 20.3971 21.4622 20.5222 21.2863C20.5222 20.7218 20.5222 20.157 20.5222 19.5922C20.454 19.4415 20.3857 19.2909 20.3175 19.1403C20.2947 18.7137 20.272 18.287 20.2493 17.8602C20.1924 17.7849 20.1355 17.7096 20.0787 17.6343C20.0787 17.4712 20.0787 17.308 20.0787 17.1448C20.1924 16.9817 20.4228 16.8185 20.5366 16.6554C20.5707 16.3416 20.4182 16.1201 20.4523 15.8063C20.3727 15.4048 20.363 14.9108 20.2834 14.5092C20.2834 14.0197 20.2834 13.5302 20.2834 13.0408C20.6134 12.9438 20.6933 12.7996 20.7169 12.6537C20.7472 12.4659 20.6539 12.2448 20.5563 11.7983C20.5108 9.45135 20.4887 7.01206 20.4432 4.66508C20.6247 4.38459 20.8422 4.23949 20.8468 4.03169C20.8504 3.86991 20.6742 3.73503 20.454 3.55257C20.454 3.38942 20.454 3.22635 20.454 3.06309C20.454 3.06309 20.8293 2.31002 21.1362 2.31002C21.4433 2.31002 21.648 2.08416 21.648 1.85827C21.9281 1.30943 21.3409 1.25582 21.3409 1.25582C20.6911 1.24252 19.9551 1.27532 19.3212 1.26214C18.7621 1.2504 18.3031 1.19233 17.759 1.18051C17.5202 1.19315 17.2814 1.20558 17.0426 1.21814C16.4557 1.39389 16.579 1.70815 16.8038 1.8837C17.0767 2.05309 17.3095 2.24712 17.6225 2.25359C18.0044 2.26143 18.3084 2.38485 18.4412 2.76185C18.4754 4.26792 18.5095 5.77404 18.5435 7.28008C18.555 8.39083 18.5897 9.50166 18.601 10.6122C18.6123 11.7229 18.6006 12.8337 18.6118 13.9444C18.6345 15.2497 18.6573 16.5549 18.6801 17.8602C18.6801 17.8602 18.6118 18.3497 18.5095 18.4627C18.4072 18.5756 18.4412 19.5545 18.4412 19.5545C18.8191 19.879 18.7387 19.8336 18.4754 20.2699C18.4525 21.2364 18.4298 22.2027 18.4072 23.169C18.3162 23.3448 18.2252 23.5207 18.1342 23.6962C18.1342 23.6962 17.1521 24.2635 17.1521 24.7529V24.7529ZM0.631321 29.4334C0.125466 29.3308 0.0306176 29.0895 0.210295 28.9471C0.31812 28.8617 0.606359 28.8648 0.735941 28.8052C0.925568 28.7171 1.11926 28.6016 1.23343 28.4624C1.42855 28.2242 1.31019 27.6728 1.54303 27.2236C1.76678 25.3285 1.83381 22.8176 1.61018 21.973C1.47592 20.6713 1.61374 16.3474 1.61374 15.7994C1.76231 15.5361 1.81806 15.5146 1.81921 15.0533C1.81961 14.873 1.94264 14.5924 1.81158 14.3694C1.62149 14.1554 1.67894 13.3187 1.66407 12.847C1.64209 12.145 1.69433 12.1507 1.89245 11.5147C1.96704 11.2754 1.99231 10.9907 1.89245 10.7612C1.73103 10.3904 1.49763 10.8188 1.51317 10.0741C1.55125 8.26694 1.6196 6.4488 1.57139 4.64235C1.58183 4.48138 1.8537 4.45198 1.90692 4.29983C1.97459 4.10638 1.99701 3.86711 1.90692 3.68337C1.85591 3.57921 1.57039 3.71468 1.48663 3.63575C0.974761 3.15347 0.331545 2.85052 0.0349316 2.20704C-0.0800384 1.95748 0.105387 1.4052 0.349117 1.28584C0.752898 1.08802 1.50396 1.29251 1.94576 1.21737C2.18335 1.17701 2.3337 1.03761 2.57437 1.02716C4.45155 0.945619 6.38322 0.76058 8.25367 0.943307C8.55307 0.972553 8.65176 1.4934 8.92467 1.62271C9.29876 1.79998 9.8458 1.76199 10.1325 2.06451C10.5922 2.54921 10.9219 2.94852 10.9803 3.62043C11.0519 4.445 11.1956 5.37895 11.1885 6.01234C11.1826 6.54274 11.0209 7.02146 10.7811 7.47766C10.4527 8.10289 10.0617 8.68637 9.63826 9.304C9.39419 9.65994 8.95979 9.99042 8.85757 10.3963C8.75194 10.816 9.85137 10.5079 10.0763 10.8753C10.2925 11.2285 9.89187 11.6424 10.0127 12.0404C10.1206 12.3953 10.744 12.4299 10.818 12.7938C11.0089 13.733 10.5876 14.7262 10.7509 15.6708C10.8031 15.9732 11.2898 15.984 11.337 16.2873C11.3945 16.9427 11.374 17.6365 11.3791 18.3329C11.3845 19.074 11.4137 19.8185 11.4041 20.523C11.3856 20.7886 11.033 20.9439 11.0015 21.2079C10.9175 21.911 11.1625 22.7049 11.0051 23.3943C10.8392 24.1204 10.2472 24.6332 10.0162 25.3405C9.81622 25.9531 9.87297 26.8477 9.55016 27.2318C9.0163 27.3971 8.35178 27.7675 7.93125 28.0764C7.31676 28.5271 6.92392 29.0438 6.73501 29.0602C6.49497 29.2708 5.98717 29.13 5.68955 29.2396C5.41511 29.3402 5.38924 29.5671 5.09985 29.5301C4.87132 29.5012 4.94254 29.3141 4.76431 29.1655C4.66055 29.0785 4.461 29.0731 4.3617 29.1655C3.75935 29.6436 4.20862 29.5184 3.52465 29.456C2.82984 29.3928 1.47742 29.6042 0.631598 29.4334H0.631321ZM4.52376 26.6839C4.68036 26.3871 4.83696 26.0904 4.9936 25.7933C4.94875 24.8118 4.90407 23.8299 4.8593 22.848C4.9936 22.6652 5.12777 22.4827 5.26195 22.2998C5.26195 21.3109 5.26195 20.322 5.26195 19.333C5.26195 18.8834 5.1984 18.4338 5.1984 17.9844C4.72733 17.6002 4.95258 17.6058 5.33257 17.1624C5.33257 16.7287 5.43868 16.3787 5.43868 15.9448C5.39383 15.5795 5.34915 15.2142 5.30438 14.8488C5.37157 14.6662 5.43867 14.4835 5.50574 14.3008C5.50574 13.7515 5.56929 13.3069 5.56929 12.7574C5.56929 12.2415 5.58444 12.0687 5.6801 12.101C5.77576 12.1333 5.95205 12.371 6.27391 12.6761C6.51846 12.908 6.76316 13.14 7.00779 13.3718C7.45967 13.8 7.89969 13.839 7.71656 14.5406C7.54541 15.197 8.03731 15.3791 7.88443 16.0305C7.76765 16.528 7.61414 16.8322 7.64815 17.1406C7.66843 17.3257 7.75638 17.5123 7.95988 17.743C8.148 17.9562 8.21068 17.9429 8.09825 18.2054C7.9239 18.612 7.77528 18.8492 7.75785 19.0934C7.73538 19.4071 7.90871 19.5513 8.06072 20.1054C8.18513 20.5588 8.17347 20.8593 8.05836 21.314C7.92204 21.8533 7.78573 22.3926 7.64938 22.9319C7.63403 23.3397 7.59634 23.748 7.56696 24.1563C7.52251 24.7782 7.43843 24.7942 6.99984 25.2388C6.60138 25.6427 6.08856 25.9882 5.70414 26.3493C5.27919 26.5092 4.94859 26.524 4.5236 26.6839H4.52376ZM5.55043 9.37637C5.89087 9.38623 6.04313 9.41946 6.14868 9.3766C6.25426 9.33363 6.31322 9.21451 6.46721 8.91998C6.66608 8.53917 6.96065 8.06327 7.20496 8.02748C7.61655 7.96723 7.83128 7.90683 7.83128 7.90683C7.83128 7.90683 8.04668 7.86659 7.97301 7.34317C7.89926 6.81975 7.74737 6.31641 7.88123 6.17552C8.01497 6.03464 8.04324 5.63203 7.90084 5.47094C7.7586 5.30997 7.62328 5.14885 7.8532 4.92744C8.08307 4.70599 8.24157 4.33527 7.69224 4.39571C7.14296 4.45611 7.14977 4.22168 7.0863 4.06055C7.02275 3.89954 6.42359 3.93631 6.11031 3.91857C5.79735 3.97897 5.53418 3.95882 5.5432 4.28087C5.55233 4.60292 5.4997 6.15544 5.50421 6.31649C5.50871 6.47754 5.55043 9.37637 5.55043 9.37637V9.37637ZM22.9258 23.5082C22.9013 23.6451 22.5827 23.6459 22.6071 23.7831C22.6414 23.9746 22.6541 24.2737 22.8498 24.2986C23.4172 24.3711 24.1952 24.1485 24.7578 24.251C24.9801 24.2916 24.9922 24.6652 25.1959 24.7615C25.3633 24.7587 25.6209 24.7646 25.8332 24.7615C25.9966 24.6776 25.9527 24.3821 26.112 24.2904C26.3082 24.1773 26.5758 24.1345 26.789 24.2117C26.9038 24.2534 26.7472 24.5509 26.8687 24.5653C27.8614 24.5283 28.7482 24.6355 29.6874 24.5653C29.8749 24.5349 29.6838 24.2702 29.8375 24.1602C30.0121 24.035 30.4452 24.2534 30.4747 24.0424C30.6272 22.9518 30.3891 21.734 30.493 20.638C30.5263 20.2872 30.8677 20.0791 30.944 19.7348C30.9694 19.6201 31.1089 19.618 31.1199 19.5051C31.1586 19.1118 31.1515 18.6348 31.0506 18.2475C30.9168 18.1122 30.5077 18.063 30.3735 18.1246C30.2224 18.2344 30.3598 18.6241 30.2583 18.7797C30.2081 18.8568 30.0293 18.7025 29.9795 18.7797C29.9306 18.8557 29.9938 18.9803 30.0163 19.0788C30.0297 19.1379 30.0285 19.1877 29.9795 19.2117C29.7183 19.3405 29.3337 19.035 29.1033 19.2117C28.8772 19.3852 29.1311 19.7208 28.9398 19.9311C28.6296 20.272 27.965 20.4717 27.6561 20.8136C27.2887 21.22 27.3215 21.6349 26.8994 21.9859C26.569 22.2604 26.0075 22.2892 25.6071 22.4495C25.143 22.6355 24.9213 22.9783 24.4392 23.112C24.2935 23.1526 24.1158 22.9015 24.1604 22.7587C24.5216 21.6041 24.991 20.4433 25.381 19.2977C25.6312 18.5628 25.7486 18.0992 26.0189 17.371C26.2986 16.6175 26.6639 15.6862 27.1206 15.022C27.2105 14.8912 27.5106 14.9766 27.5587 14.8257C27.6781 14.451 27.4546 14.0265 27.5587 13.6475C27.6356 13.367 27.9351 13.0978 28.183 12.9406C28.3505 12.8344 28.6177 12.9823 28.6917 12.8001C28.8643 12.3746 28.703 11.9238 28.8117 11.4782C28.885 11.1781 29.0941 10.9941 29.2272 10.7145C29.4037 10.3434 29.3908 10.0213 29.5856 9.65911C29.7442 9.36447 30.0778 8.95207 30.1739 8.63212C30.3059 8.19277 30.1977 7.97714 30.2407 7.52083C30.2522 7.398 30.4347 7.32999 30.4398 7.20665C30.5016 5.72877 30.581 4.24565 30.493 2.7689C30.4859 2.64857 30.2118 2.65376 30.2142 2.53327C30.2238 2.08199 30.2793 1.68327 30.254 1.27656C30.2492 1.19709 30.2771 1.132 30.1965 1.12869C28.9494 1.0771 27.7184 1.1051 26.4704 1.11945C25.4482 1.13111 24.4234 1.05032 23.4037 1.11945C23.2494 1.1299 23.1111 1.15606 23.0054 1.26731C22.904 1.37404 22.8537 1.60181 22.8596 1.7478C22.8864 2.40411 22.8462 3.11865 22.8596 3.90781C22.8619 4.05404 23.1541 3.96654 23.2045 4.10419C23.345 4.48758 23.3557 4.91531 23.3241 5.32163C23.3139 5.45218 23.153 5.62796 23.1561 5.75867C23.2201 6.213 23.2798 6.53407 23.3639 6.97108C23.4122 7.14008 23.5597 7.27208 23.6028 7.44237C23.6543 7.64592 23.4661 8.05711 23.6782 8.07072C23.7487 8.07517 23.9945 8.11568 24.1206 8.07072C24.2826 8.01282 24.061 7.71985 24.1206 7.56017C24.1628 7.44697 24.38 7.44358 24.3994 7.32457C24.5047 6.67789 24.3217 5.92011 24.4257 5.27311C24.4575 5.07596 24.5721 4.8677 24.7444 4.76261C24.8909 4.67312 25.1562 4.89687 25.2621 4.76261C25.409 4.57634 25.2645 4.36175 25.3553 4.14346C25.4852 3.83108 25.6967 3.54302 25.9527 3.31872C26.1878 3.11264 26.423 2.86601 26.7357 2.83391C27.4351 2.76228 28.2716 2.82658 29.2186 2.78637C29.3073 2.78247 29.3312 2.91708 29.338 3.00455C29.3715 3.43524 29.451 4.02039 29.338 4.30057C29.174 4.7072 28.803 5.16105 28.4263 5.58336C28.1687 5.87211 27.9082 6.12768 27.7093 6.41713C27.471 6.76414 27.8271 7.23734 27.7051 7.63875C27.5802 8.04936 27.2391 8.48582 26.9747 8.82616C26.7578 9.10536 26.4391 9.24828 26.2358 9.53718C25.982 9.89792 25.8342 10.2532 25.6739 10.6628C25.5406 11.0033 25.4547 11.3628 25.3951 11.7231C25.348 12.0077 25.4859 12.3294 25.3553 12.5871C25.2595 12.7759 25.0435 12.7411 24.9042 12.9013C24.7111 13.1236 24.598 13.4085 24.506 13.6868C24.397 14.0163 24.3881 14.2115 24.218 14.5148C24.0271 14.855 23.6441 15.1836 23.4705 15.5326C23.2811 15.9132 23.2594 16.3758 23.1647 16.7893C23.0732 17.1892 22.9966 17.5659 22.9129 17.9675C22.8103 18.4589 22.7032 18.9583 22.7137 19.4599C22.7169 19.6125 22.8806 19.7176 22.9527 19.8526C23.0135 19.9666 23.1533 20.0838 23.112 20.206C23.0556 20.3731 22.7389 20.3852 22.7137 20.5595C22.6877 20.7395 22.7342 20.9057 22.8682 21.0309C22.9847 21.1393 23.2226 21.0921 23.3063 21.2271C23.3963 21.3725 23.3801 21.5838 23.3063 21.7375C23.2449 21.8658 23.0292 21.8346 23.0011 21.9734C22.8866 22.5384 23.0272 22.9408 22.9258 23.5082V23.5082ZM57.4576 29.0739C57.3829 28.8399 57.5695 28.7943 57.6937 28.6722C57.8752 28.4936 58.0508 28.3193 58.1228 27.9676C58.1501 27.8342 58.2885 27.6186 58.3205 27.4049C58.3676 27.0929 58.2956 26.7677 58.2094 26.5661C58.0963 26.3021 57.9108 26.1645 57.9781 25.9126C58.0018 25.7516 58.3711 25.7317 58.6622 25.6041C58.8148 25.5375 58.9457 25.4068 58.9944 25.284C59.058 25.1222 58.8461 25.1499 58.7381 24.9444C58.623 24.7256 58.606 24.3981 58.5175 24.2351C58.3628 23.9512 58.0801 23.5702 58.0698 23.2477C58.0421 22.3875 58.2948 21.5191 58.3272 20.6915C58.3545 19.9974 58.521 19.832 58.4672 19.1209C58.4407 18.7668 58.2478 18.5091 58.0484 18.1476C57.8835 17.848 57.6668 17.5514 57.5838 17.2688C57.4363 16.7659 57.5846 16.1698 57.4952 15.6537C57.4778 15.5526 57.2208 15.4288 57.2113 15.3265C57.1448 14.6181 57.2259 13.8926 57.1796 13.1919C57.1559 13.0601 57.0475 13.035 57.0349 12.9017C56.9973 12.5089 57.0345 12.1264 57.0333 11.7868C57.0321 11.4872 56.9902 11.2312 56.9902 10.883C56.9902 10.7532 56.8811 10.6643 56.8767 10.5345C56.8502 9.7683 56.8827 8.92229 56.8724 8.15488C56.8613 7.33791 56.8107 6.59944 56.8767 5.78594C56.8882 5.64879 57.1694 5.6521 57.1638 5.51469C57.1377 4.89132 57.0831 4.6434 57.0978 4.01641C57.0994 3.94408 57.2496 3.77597 57.2556 3.70383C57.2995 3.18221 57.3651 2.66007 57.2303 2.21367C57.133 1.89033 56.887 1.7896 56.6046 1.58102C56.3555 1.39677 56.0775 1.09727 55.847 0.929396C55.5519 0.714421 55.3554 0.541515 55.132 0.219579C54.9975 0.0258162 55.2194 0.00889507 55.4669 0.00175912C55.7849 -0.00740453 56.1321 0.019971 56.4346 0.0666861C56.537 0.0824788 56.7296 0.256508 56.8265 0.293514C57.0598 0.382733 57.2125 0.266884 57.4513 0.340389C57.6336 0.396579 58.3949 0.787925 58.5997 0.904323C58.8797 1.06334 58.9702 1.29442 59.2625 1.4295C59.3151 1.45379 60.2179 1.70861 60.3227 1.73446C60.5671 1.79463 60.7189 1.61842 60.9633 1.67859C61.2473 1.74839 61.7523 1.88943 62.071 1.98352C62.2505 2.03647 62.364 2.24572 62.5479 2.28183C63.4396 2.45731 63.2803 2.16419 63.9866 2.86051C64.1946 3.0657 64.5382 3.23048 64.6932 3.47704C64.9123 3.82499 64.9353 4.25147 65.0745 4.63069C65.1828 4.92552 65.4248 5.16772 65.4822 5.481C65.6368 6.32409 65.4754 7.2008 65.5802 8.0513C65.6123 8.31108 65.8832 8.5851 65.9116 8.84535C66.0196 9.84165 66.0378 10.8254 65.9148 11.82C65.8733 12.1553 65.587 12.2916 65.5359 12.6256C65.4509 13.1858 65.6206 13.7594 65.5802 14.3246C65.5613 14.5952 65.4086 14.8777 65.2647 15.1087C65.1595 15.2769 64.919 15.3376 64.8419 15.5197C64.6391 15.9977 64.6901 16.6514 64.596 17.1694C64.5667 18.1581 64.5872 18.9251 64.6304 19.9132C64.6608 20.6097 64.7332 21.2348 64.643 21.9262C64.6114 22.1656 64.4081 22.2971 64.3717 22.5361C64.2713 23.1967 64.3575 23.8751 64.2926 24.54C64.2816 24.6531 64.1115 24.7841 64.0874 24.8952C64.0423 25.5028 63.9992 26.3895 63.7307 27.0735C63.5539 27.5246 63.1241 27.9793 62.7112 28.2405C62.3114 28.4936 61.8816 28.5482 61.4209 28.664C61.1298 28.7369 60.804 28.7018 60.5374 28.8379C60.3777 28.9198 60.4848 28.921 60.3389 29.024C60.2547 29.0828 60.1091 29.0879 60.0297 29.024C59.9173 28.9331 59.9522 28.896 59.8213 28.8348C59.6216 28.7416 59.3614 28.749 59.1585 28.8348C59.0122 28.8968 59.0655 29.0095 58.9089 29.0395C58.593 29.1004 58.2228 29.1792 57.8812 29.1702C57.6767 29.1651 57.5154 29.256 57.4576 29.0739V29.0739ZM60.4231 6.70203C60.8668 6.67887 60.9538 6.65512 61.3489 6.86436C61.7574 7.08035 61.8428 7.22283 62.0923 7.61313C62.2213 7.73557 62.3498 7.85808 62.4783 7.98045C63.0031 8.47989 63.2506 9.18479 63.465 9.84531C63.5002 10.5624 63.6564 11.8187 63.2933 12.4694C63.1122 12.7943 63.0406 13.045 63.0098 13.3206C62.924 14.0917 62.7021 13.9713 62.4763 14.5553C62.415 14.7137 62.4285 14.9108 62.4229 15.2867C62.4032 16.6292 62.383 17.9718 62.3632 19.3143C62.3506 20.172 62.1869 20.5813 61.8353 21.3733C61.6289 21.7519 61.5205 21.996 61.5205 22.4257C61.5205 22.935 61.4149 23.1697 61.2097 23.6338C61.0847 23.9161 60.9594 24.1988 60.8344 24.4815C60.6861 24.8165 60.5501 24.9366 60.4516 24.8917C60.3531 24.8473 60.2922 24.6371 60.2938 24.3119C60.3025 22.6729 60.3112 21.0344 60.3199 19.3955C60.3389 17.6531 60.3579 15.9106 60.3769 14.1683C60.3547 13.7941 60.369 13.7112 60.1198 13.4337C60.0965 12.8696 59.9862 12.6145 59.805 12.0775C59.5765 11.654 59.6026 11.3451 59.597 10.861C59.5828 9.65007 59.5682 8.43891 59.5539 7.22794C59.5452 6.48483 59.7157 6.73888 60.4231 6.70203V6.70203ZM31.4617 27.5363C31.325 26.8773 31.4206 26.3536 31.4565 25.858C31.4735 25.7398 31.7153 25.8502 31.781 25.7504C31.879 25.601 31.9675 25.3963 31.9027 25.2302C31.8639 25.1308 31.7951 25.268 31.7371 25.1779C31.6569 25.0539 31.6851 24.8535 31.7776 24.7381C31.9126 24.5692 32.1827 24.6129 32.2749 24.4179C32.4007 24.152 32.1848 23.8174 32.2749 23.5378C32.3036 23.4489 32.5366 23.6287 32.5589 23.5378C32.664 23.1101 32.5333 22.6531 32.5995 22.2179C32.6167 22.1044 32.7183 22.0518 32.7317 21.9379C32.7879 21.461 32.8172 20.9705 32.7317 20.4978C32.6786 20.2043 32.4381 19.9931 32.3966 19.6978C32.2461 18.6267 32.2005 17.4605 32.3403 16.388C32.4489 15.5553 32.9872 14.2677 33.3034 13.4882C33.5011 13.0006 33.5981 13.1527 33.7759 12.6575C33.8302 12.5061 33.8679 12.3298 33.8165 12.1774C33.7524 11.9877 33.5253 11.8427 33.5573 11.6452C33.5965 11.4033 33.8983 11.4093 33.9787 11.1774C34.0881 10.8621 33.868 10.4923 33.9787 10.1774C34.1091 9.8069 34.5582 9.59412 34.6684 9.21736C34.7736 8.85783 34.6608 8.28344 34.7638 7.92321C34.9674 7.21152 35.2119 6.75182 35.5609 6.09722C35.7669 5.71071 36.1249 5.38414 36.2858 4.97716C36.4409 4.58503 36.4251 4.06589 36.4939 3.73713C36.2404 3.42463 35.6586 3.86078 35.2769 3.72489C35.0832 3.65598 35.0839 3.34377 34.8922 3.26933C34.4817 3.2418 34.0892 3.23247 33.797 3.44861C33.4049 3.7385 33.4018 4.07833 33.2485 4.53714C33.0195 5.2227 33.1941 5.99291 32.9082 6.65722C32.7952 6.91992 32.3341 6.99378 32.1127 7.17725C31.9955 7.27427 31.941 7.37542 31.7881 7.37542C31.6351 7.37542 31.5018 7.32332 31.4636 7.17725C31.3859 6.88039 31.4787 6.56356 31.4636 6.25722C31.4517 6.01608 31.3207 5.7708 31.3825 5.53719C31.4147 5.41549 31.6971 5.46263 31.707 5.33718C31.8283 3.96279 31.6616 2.59725 31.6829 1.28392C31.6903 0.822817 31.8144 0.891181 32.2748 0.88658C33.0501 0.878703 34.279 0.884623 35.1703 0.880177C36.7339 0.872457 38.3015 0.814906 39.8608 0.85702C40.0929 0.873592 40.395 0.95856 40.4112 1.18738C40.4441 1.65008 40.1297 2.09625 39.9122 2.50745C39.7971 2.72476 39.5401 2.86682 39.4554 3.09708C39.3115 3.48738 39.4677 3.94984 39.3159 4.33713C39.2229 4.5748 38.7504 4.61876 38.6598 4.85717C38.5313 5.19443 38.7531 5.60203 38.6191 5.93719C38.5526 6.10361 38.1928 6.00855 38.1323 6.1772C37.9282 6.748 38.048 7.39273 37.8891 7.97729C37.8009 8.29997 37.5529 8.52622 37.5082 8.85732C37.3864 9.75606 37.5873 10.6742 37.5082 11.5774C37.4908 11.7735 37.2808 11.9089 37.2239 12.0975C37.0902 12.541 37.006 13.0204 36.8518 13.4575C36.7853 13.6463 36.5386 13.7442 36.4868 13.9375C36.4106 14.2211 36.6015 14.547 36.4868 14.8175C36.3424 15.1577 35.8341 15.2968 35.7565 15.6576C35.5375 16.6757 35.8843 17.7492 35.7231 18.7777C35.651 19.238 35.2396 19.5996 35.1552 20.0577C35.0464 20.648 35.2338 21.346 35.0845 21.9274C34.9406 22.4889 34.5279 22.9755 34.3209 23.5172C34.2725 24.0487 33.6266 24.5365 33.9787 24.9381C34.4035 24.9935 35.1085 25.0789 35.6014 24.8578C35.8283 24.7564 35.5655 24.2869 35.7637 24.138C36.3694 23.6817 37.0645 23.5172 37.7443 23.1779C38.1331 22.9837 38.6218 22.7985 38.9686 22.538C39.1446 22.4055 39.1648 22.0908 39.374 22.0178C39.5001 21.9738 39.5262 22.2756 39.6579 22.2978C40.1111 22.3739 40.5042 22.1828 40.9491 22.2978C41.127 22.3438 41.1215 22.5797 41.1677 22.7552C41.2093 22.9124 41.2813 23.0816 41.1927 23.2177C41.1393 23.2996 40.9459 23.2083 40.9083 23.298C40.8312 23.4829 40.8613 23.7036 40.9083 23.8978C40.9455 24.0491 41.0859 24.143 41.0989 24.2979C41.1685 25.1085 41.1915 25.9298 41.0989 26.7381C41.0796 26.9077 40.9819 27.0855 40.8099 27.1031C39.6397 27.0501 38.5582 27.1347 37.3864 27.1382C37.2658 27.1277 37.335 26.9171 37.2239 26.8703C36.9218 26.7424 36.377 26.7248 36.0563 26.7974C35.6833 26.8816 35.6521 27.1842 35.2769 27.2579C34.6007 27.3912 33.8192 27.2606 33.1373 27.3624C32.8963 27.3983 32.7123 27.5999 32.4759 27.658C32.1479 27.7387 31.6307 27.8249 31.4617 27.5363V27.5363ZM13.3918 29.4151C12.886 29.5901 12.2958 29.4154 11.7596 29.4267C11.5944 29.4303 11.3254 29.5582 11.1666 29.5121C10.9934 29.4622 10.7203 29.1234 10.8286 28.9807C11.2518 28.4242 12.086 28.3548 12.4724 27.7734C12.6996 27.4314 12.4868 26.9709 12.5844 26.5736C12.6144 26.4515 12.8313 26.4628 12.8954 26.3544C12.9475 26.2663 12.9628 26.1255 12.8954 26.0479C12.7413 25.8705 12.6438 26.2425 12.583 25.7114C12.5286 25.2364 12.5172 24.7541 12.5618 24.2795C12.5899 23.9773 12.8127 24.0413 12.8548 23.8818C12.9333 23.585 12.7701 23.3651 12.8509 23.0687C12.8871 22.9358 13.1371 22.9693 13.2063 22.8496C13.2723 22.7357 13.2801 22.5649 13.2063 22.4554C13.055 22.2315 12.6436 22.235 12.5978 21.9699C12.5135 21.4821 12.5586 20.9584 12.5673 20.4744C12.5766 19.9589 12.5407 19.442 12.5844 18.9167C12.5924 18.8193 12.8161 18.8235 12.8509 18.7319C12.9184 18.5542 12.8757 18.3506 12.8509 18.1624C12.831 18.0114 12.8781 17.7025 12.8663 17.5506C12.8483 17.3173 12.7467 17.2307 12.8567 17.0234C12.9333 16.8789 13.1833 16.9659 13.2063 16.8044C13.3278 15.9512 13.0684 15.0764 13.1619 14.2197C13.1777 14.0746 13.4095 14.0977 13.4484 13.9569C13.5111 13.7297 13.5305 13.4687 13.4284 13.2559C13.3803 13.1555 13.1532 13.1551 13.1445 13.0444C13.0447 11.7925 13.2183 10.609 13.1175 9.35711C13.108 9.23986 12.816 9.40429 12.8106 8.89553C12.8046 8.36232 12.7548 7.8653 12.7621 7.47337C12.7677 7.17265 13.4257 7.16454 13.4188 6.86381C13.4082 6.40555 13.4814 5.88837 13.3743 5.41818C13.3399 5.267 13.1399 5.292 13.073 5.15158C13.0101 5.0197 13.0695 4.88817 13.1271 4.7536C13.1962 4.59166 13.384 4.48945 13.4284 4.31924C13.5097 4.0083 13.5016 3.66854 13.4284 3.35549C13.4045 3.25306 13.2252 3.15297 13.1753 3.06C13.083 2.88796 13.1248 2.73611 13.0015 2.58403C12.9163 2.4791 12.6648 2.54356 12.5612 2.45633C12.2944 2.23173 12.1406 1.982 11.9169 1.77743C11.7066 1.58531 11.4232 1.44053 11.2612 1.15766C11.157 0.975951 11.2783 0.661617 11.4466 0.534729C11.5758 0.437322 11.7783 0.459353 11.9218 0.534729C12.0385 0.596106 12.0362 0.840561 12.1671 0.85846C12.7397 0.937111 13.3081 0.688567 13.8727 0.810931C14.1188 0.864314 14.132 1.17089 14.3614 1.27356C14.5149 1.34231 14.7915 1.20941 14.9312 1.30245C15.1362 1.43905 15.3101 1.72967 15.4717 1.89196C15.6795 2.10062 15.8586 2.19351 15.9647 2.48896C16.0985 2.86202 16.0399 3.24479 16.034 3.63283C16.0288 3.9752 16.0853 4.32193 16.0535 4.66972C16.0428 4.7867 15.8149 4.73165 15.783 4.84492C15.7271 5.04379 15.7671 5.26641 15.8719 5.44489C15.9481 5.57486 16.1545 5.50869 16.2042 5.65055C16.32 5.98208 16.3347 6.38848 16.2486 6.72866C16.2165 6.85532 15.9686 6.7737 15.9608 6.9039C15.861 8.5511 15.8361 10.2126 16.0052 11.8541C16.0338 12.1331 16.4812 12.2325 16.5113 12.5112C16.6789 14.065 16.5263 15.6376 16.4611 17.1986C16.4519 17.4206 16.3403 17.6997 16.2486 17.8654C16.1459 18.0506 16.2097 18.2356 16.2136 18.44C16.2186 18.7028 16.1867 18.9893 16.2273 19.2576C16.2505 19.4108 16.5666 19.5566 16.5557 19.7112C16.5257 20.137 16.5872 20.3383 16.6136 20.7582C16.6263 20.9603 16.253 21.0867 16.1346 21.252C16.0494 21.3709 15.9976 21.6014 16.067 21.7301C16.1325 21.8513 16.25 21.7897 16.2872 21.9223C16.3399 22.1099 16.3443 22.2682 16.2486 22.4386C16.1868 22.5482 15.9592 22.5337 15.9376 22.6574C15.8771 23.004 16.0767 23.3608 16.0264 23.709C16.0114 23.8131 15.7757 23.78 15.7599 23.8841C15.6809 24.4039 15.8492 24.9428 15.7599 25.461C15.7261 25.6568 15.4187 25.7449 15.4045 25.943C15.3965 26.0538 15.6624 25.9765 15.7155 26.0744C15.7993 26.2296 15.5888 26.5509 15.7599 26.6001C16.3283 26.7642 17.0317 26.7217 17.6045 26.5736C17.929 26.4893 18.0663 26.0409 18.4003 26.0097C18.8028 25.9722 19.0997 26.2343 19.4975 26.3045C20.022 26.3977 20.5958 26.4144 21.1103 26.278C21.414 26.1972 21.5904 25.8795 21.9023 25.8385C23.2524 25.6595 24.5054 25.7695 25.8677 25.7625C27.1558 25.7554 28.8037 25.6915 29.76 25.7944C30.3054 25.8124 29.714 27.7149 29.9106 28.7198C29.9534 28.9385 30.143 29.061 30.2569 29.2634C30.4385 29.5862 30.509 29.7504 30.0373 29.7485C29.15 29.7442 28.2522 29.8116 27.2895 29.7715C27.1003 29.7637 27.1095 29.4041 26.9341 29.3332C26.7418 29.2556 26.514 29.4252 26.3121 29.3772C26.0096 29.3051 25.6686 29.0193 25.3598 28.983C24.5365 28.8855 23.7068 29.0891 22.8855 28.9772C22.6991 28.9518 22.6734 28.5962 22.4857 28.5825C20.5658 28.4441 18.7262 28.643 16.8044 28.5396C16.3928 28.5174 16.3552 28.3759 16.0939 28.301C15.7242 28.1957 15.0631 28.1536 14.7148 28.3146C14.0658 28.6141 14.0679 29.1807 13.3917 29.4151H13.3918ZM36.503 22.0132C36.1019 22.0015 36.0752 21.3663 36.1071 20.9767C36.1397 20.5782 36.6675 20.5991 36.8557 20.2451C36.993 19.9874 36.7873 19.5343 36.9439 19.2875C37.1124 19.0216 37.5691 19.0315 37.7376 18.7656C37.8341 18.6137 37.6901 18.3223 37.6945 18.1432C37.7052 17.719 37.8017 17.4066 37.7819 16.9828C37.7716 16.7624 37.6787 16.3643 37.721 16.1476C37.7791 15.8516 37.9579 15.9234 38.0464 15.6348C38.1568 15.2739 37.9733 14.8631 38.0903 14.5043C38.137 14.3623 38.5143 14.4336 38.4874 14.2868C38.4546 14.1083 38.1243 14.2044 38.0915 14.0259C37.9915 13.4825 37.9859 12.8431 38.1346 12.3106C38.2276 11.9776 38.6108 11.7228 38.708 11.3907C38.8097 11.0428 38.5945 10.6482 38.708 10.3036C38.7848 10.0697 39.1766 10.0203 39.2372 9.78183C39.3795 9.21926 39.2526 8.52921 39.4009 7.9682C39.4788 7.6738 39.6346 7.34009 39.8256 7.15557C39.9403 7.04479 40.0435 6.9643 40.0973 6.78972C40.1708 6.55061 39.9901 6.34952 40.0316 6.10296C40.0684 5.88482 40.2372 5.7448 40.3444 5.5508C40.4801 5.30584 40.5366 4.99549 40.6667 4.74795C40.8565 4.38604 41.112 4.08328 41.248 3.69825C41.3497 3.41118 41.1314 2.94293 41.2615 2.66705C41.4458 2.27641 41.9219 2.28604 42.1034 1.89407C42.2501 1.57743 41.9935 1.16359 42.1477 0.850463C42.2596 0.622346 42.5123 0.521632 42.7689 0.511572C42.9572 0.504202 43.1857 0.63264 43.2498 0.806944C43.376 1.14849 43.2621 1.55891 43.4048 1.89407C43.6552 2.48346 44.0894 2.83087 44.3302 3.42424C44.4555 3.73362 44.3199 4.17851 44.3966 4.50306C44.501 4.94428 44.5742 5.38925 44.7221 5.81892C44.9056 6.354 45.1686 6.87302 45.3228 7.41644C45.4592 7.89771 45.492 8.41988 45.5972 8.90973C45.6743 9.26715 45.8151 9.59533 45.9401 9.93851C45.9935 10.0859 46.1742 10.0485 46.2173 10.1994C46.2928 10.466 46.0658 10.7559 46.1291 11.0256C46.2042 11.3479 46.5562 11.6745 46.6139 12.0002C46.708 12.5284 46.61 13.0336 46.623 13.5697C46.6349 14.0597 46.6875 14.5147 46.7527 14.9844C46.7931 15.2735 46.9552 15.6857 46.9627 15.8957C46.99 16.6784 47.0252 17.4489 47.0339 18.2324C47.0473 19.3774 47.0473 20.6016 46.9892 21.7445C46.9825 21.8779 46.8211 21.9461 46.7737 22.0713C46.5938 22.5451 46.4431 22.8071 46.3276 23.3004C46.2667 23.5605 46.2647 23.8404 46.1513 24.083C46.0817 24.2319 45.7712 24.354 45.7186 24.5096C45.602 24.8558 45.7451 25.2041 45.7194 25.6361C45.6977 26.0081 45.5415 26.2218 45.3845 26.5677C45.2769 26.804 45.1021 27.1725 45.0357 27.4189C44.9633 27.6864 45.0934 27.9797 45.0139 28.2452C44.972 28.3841 44.7798 28.4511 44.7494 28.5931C44.673 28.9475 44.8154 29.3343 44.7051 29.6798C44.643 29.8756 44.5999 29.8471 44.4105 29.9313C44.276 29.9906 43.9233 30.0581 43.9031 29.9138C43.8177 29.3086 43.9905 28.8882 43.8932 28.2842C43.7793 27.5776 43.4796 27.1479 43.2988 26.4546C43.2111 26.1181 43.368 25.5098 43.2059 25.2013C42.9141 24.6457 41.9796 24.4211 42.0203 23.7968C42.0595 23.1927 42.4257 22.7997 42.7986 22.3083C43.0533 21.9718 43.219 21.4224 43.3775 21.0391C43.4942 20.7564 43.5622 20.4253 43.5674 20.1465C43.5753 19.7304 43.461 19.5492 43.1415 19.2904C42.4739 18.7495 41.3951 18.2549 40.5643 17.8566C40.4425 17.7982 40.2997 18.0274 40.2997 18.161C40.2997 18.2946 40.4583 18.3985 40.4741 18.531C40.5204 18.9207 40.2811 19.3249 40.4524 19.6788C40.6331 20.0527 41.3461 20.1616 41.2405 20.5623C41.1693 20.8307 41.1025 20.9252 40.8716 21.0562C40.7316 21.1358 40.5761 21.1303 40.4124 21.1378C39.9213 21.16 39.4163 20.9884 38.9417 21.0874C38.4265 21.1951 37.9654 21.4298 37.4892 21.6638C37.1741 21.819 36.8518 22.0237 36.503 22.0132V22.0132ZM40.8466 15.9339C40.8423 15.5503 40.8328 15.1728 40.8336 14.7955C40.8344 14.4624 40.8427 14.1293 40.8692 13.7922C40.8866 13.5732 41.0899 13.4061 41.116 13.188C41.1598 12.8274 40.9352 12.3947 41.0377 12.048C41.0788 11.9073 41.4406 12.0484 41.5225 11.9301C41.5494 11.8913 41.6043 11.6656 41.6957 11.4731C41.7506 11.3577 41.8649 11.254 41.8649 11.2098C41.8649 11.1453 41.8606 10.6876 41.9096 10.291C41.9381 10.0608 41.9741 9.86633 42.0097 9.86481C42.0449 9.86325 42.0805 10.0541 42.2042 10.2129C42.3466 10.3956 42.3948 10.5768 42.5194 10.77C42.593 10.884 42.672 11.0183 42.7935 11.0648C42.9481 11.124 43.1332 11.0406 43.287 11.1019C43.4021 11.1476 43.4301 11.3257 43.5337 11.3966C43.6037 11.4446 43.7643 11.3532 43.7805 11.4408C43.8537 11.8357 43.7904 12.364 43.8541 12.7606C43.8695 12.8557 44.0826 12.8115 44.0874 12.908C44.1198 13.5987 44.136 14.2905 44.1336 14.9823C44.1317 15.5928 44.1155 16.2034 44.0834 16.8134C44.0747 16.9873 43.6089 16.9994 43.4788 16.9018C43.2273 16.7129 43.0679 16.4936 42.7389 16.4155C42.6017 16.3831 42.6084 16.1688 42.4783 16.126C42.1896 16.0312 41.8254 16.0076 41.5237 16.0076C41.3267 16.0076 41.0424 16.0761 40.8466 16.0518C40.8107 16.0473 40.847 15.9729 40.8466 15.9339V15.9339ZM50.2118 4.02881C50.2125 4.42621 50.2557 4.85678 50.2568 5.27289C50.2588 5.8084 50.2193 6.28814 50.2212 6.82793C50.2232 7.40275 50.2667 8.03769 50.2667 8.59984C50.2667 9.05677 50.1821 9.93507 50.2181 10.3146C50.264 10.8026 50.2912 10.8871 50.9679 10.8871C51.2953 10.8871 51.739 10.5559 52.066 10.2213C52.2899 9.99217 52.2563 9.59669 52.3421 9.42562C52.4686 9.17419 52.6849 8.94419 52.73 8.65228C52.7877 8.2768 52.6485 7.96684 52.9024 7.72668C53.0025 7.63169 53.097 6.55358 53.097 6.31634C53.097 5.97818 52.7367 5.47671 52.3227 5.02804C52.0395 4.72104 51.6998 4.44551 51.5551 4.23521C51.2898 3.85018 51.0912 3.68126 50.7769 3.612C50.2027 3.48554 50.2114 3.53753 50.2118 4.02881V4.02881ZM47.1802 25.1896C47.073 25.6069 47.3989 25.7773 47.7845 26.0229C48.1692 26.2686 48.6145 26.5899 49.0337 26.9288C49.7431 27.502 50.226 28.5482 50.6875 29.5785C50.9251 29.3293 50.7575 28.168 50.8907 27.4724C50.9192 27.3234 51.0822 27.2158 51.0976 27.0649C51.1521 26.524 51.1656 25.9738 51.0976 25.4345C51.0719 25.2333 50.8745 25.0863 50.8219 24.891C50.7804 24.7377 50.7903 24.5704 50.8219 24.4152C50.8603 24.2257 51.011 24.0643 51.0284 23.8716C51.0806 23.3078 51.1146 22.733 51.0284 22.1734C50.9959 21.9621 50.6677 21.8428 50.6839 21.6298C50.6978 21.4536 51.0841 21.4665 51.0976 21.2902C51.1351 20.7852 50.9576 20.2978 50.8943 19.7955C50.7512 18.6663 50.6677 17.5305 50.5495 16.3986C50.5072 15.9907 50.3419 15.5799 50.4119 15.1757C50.6274 14.6243 50.8243 14.0579 51.0319 13.6131C51.1332 13.482 51.2668 13.7382 51.3696 13.868C51.7054 14.2907 52.1515 14.8139 52.2479 15.3423C52.3662 15.9901 52.0103 16.5632 52.0862 17.2173C52.1084 17.4081 52.4065 17.3739 52.4753 17.5535C52.8043 18.412 53.0717 19.2994 53.2334 20.2031C53.4177 21.2329 53.477 22.283 53.509 23.3284C53.5229 23.7831 53.5031 24.2511 53.371 24.687C53.1828 25.3097 52.7905 25.8061 52.5959 26.4078C52.3923 27.0372 52.3266 27.2251 53.0021 27.2248C53.2694 27.2244 53.5814 27.2349 53.7878 27.3367C54.3407 27.6092 54.5688 28.2378 55.0936 28.5595C55.2071 28.6289 55.3554 28.7252 55.5116 28.8114C56.2559 29.2224 56.3377 28.9386 56.4927 28.2959C56.6972 27.4462 56.749 26.68 56.8815 25.842C56.9491 25.417 56.9348 24.981 56.9538 24.5513C56.9807 23.9387 57.0274 23.3292 56.9954 22.7166C56.9807 22.4308 56.9823 22.1181 56.7921 21.9016C56.6493 21.739 56.2282 21.9052 56.172 21.6977C56.0949 21.4134 56.5109 21.1767 56.5165 20.8823C56.4026 20.0881 56.2982 19.3773 56.2847 18.5944C56.2693 17.6714 56.0688 18.136 55.7584 17.7742C55.5709 17.5556 55.5124 17.3629 55.4831 17.078C55.3965 16.2441 55.5191 15.3213 55.3898 14.4929C55.3321 14.1225 55.1565 13.7571 54.9078 13.4738C54.8176 13.3712 54.6523 13.5239 54.5906 13.4024C54.4874 13.1989 54.8045 13.0596 54.6835 12.8658C54.4024 12.4156 53.8139 12.0719 53.3679 11.7788C53.2342 11.691 52.9989 11.8909 52.8854 11.7788C52.7719 11.6667 52.7747 11.3227 52.8854 11.2081C53.6799 11.0947 54.0888 10.7258 54.4767 10.2842C55.0031 9.68551 55.2605 9.01813 55.5243 8.26987C55.6461 7.92497 55.4903 7.52188 55.531 7.15904C55.6065 6.4876 55.9636 5.87785 55.8446 5.21257C55.6718 4.24508 55.1881 3.37808 54.6321 2.56298C54.3233 2.11049 53.8436 1.70944 53.3437 1.47598C52.9265 1.28116 52.5773 1.44416 52.1344 1.31638C51.6215 1.16843 51.2107 0.885529 50.6875 0.779776C50.2802 0.69742 49.8527 0.865018 49.4473 0.772874C49.1943 0.715319 49.1531 0.434783 48.8961 0.395867C48.7189 0.368961 48.5378 0.622115 48.3591 0.637011C47.1233 0.740228 46.1089 0.504197 44.8791 0.66419C44.6956 0.688094 44.7478 0.88989 44.9 0.993692C45.1274 1.14885 45.473 1.07223 45.7269 1.18051C46.1825 1.37517 46.5329 1.63686 46.8706 1.99576C47.1502 2.29259 47.2641 2.62275 47.5179 3.08277C47.6223 3.27134 47.9225 2.90924 48.1384 2.87894C48.4109 2.84057 48.6003 2.83336 48.7723 3.04545C48.9269 3.2357 48.607 3.48925 48.4247 3.65338C48.0557 3.98499 47.8046 4.16061 47.4784 4.38077C47.2554 4.53149 46.8603 4.66679 46.6946 4.9612C46.3268 5.61435 46.763 6.35715 46.9046 7.0911C46.9564 7.3588 47.0157 7.6205 47.0774 7.88601C47.2775 8.7493 47.2103 9.46781 47.3321 10.3452C47.3716 10.6288 47.5757 10.8759 47.6077 11.1605C47.6457 11.4987 47.584 11.7479 47.6354 12.0844C47.6567 12.2277 47.7758 12.3796 47.8145 12.5192C47.9862 13.1405 48.1372 13.9208 48.159 14.5643C48.2294 16.6693 48.1028 18.7315 48.2104 20.8352C48.2202 21.0266 48.5117 21.1023 48.5516 21.2902C48.6137 21.5815 48.4168 21.9161 48.3175 22.1972C47.9098 23.3483 47.4317 24.2097 47.1802 25.1896V25.1896Z" fill="white"/>
</svg>
