<svg width="22" height="22" viewBox="0 0 22 22" fill="none" xmlns="http://www.w3.org/2000/svg">
<path d="M10.6475 19.2986C8.93643 19.2986 7.26383 18.7912 5.84117 17.8406C4.41851 16.89 3.30968 15.5389 2.6549 13.9581C2.00012 12.3773 1.8288 10.6379 2.1626 8.95974C2.4964 7.28159 3.32034 5.74012 4.53021 4.53025C5.74009 3.32037 7.28156 2.49643 8.95971 2.16263C10.6379 1.82883 12.3773 2.00015 13.9581 2.65493C15.5389 3.30971 16.89 4.41854 17.8406 5.8412C18.7912 7.26386 19.2985 8.93646 19.2985 10.6475C19.2962 12.9412 18.384 15.1402 16.7621 16.7621C15.1402 18.384 12.9411 19.2962 10.6475 19.2986ZM10.6475 3.32734C9.19966 3.32734 7.78439 3.75666 6.5806 4.561C5.37681 5.36535 4.43856 6.5086 3.88452 7.84618C3.33048 9.18377 3.18551 10.6556 3.46796 12.0756C3.75041 13.4955 4.44759 14.7999 5.47133 15.8236C6.49507 16.8473 7.79939 17.5445 9.21936 17.827C10.6393 18.1094 12.1112 17.9645 13.4487 17.4104C14.7863 16.8564 15.9296 15.9181 16.7339 14.7143C17.5383 13.5105 17.9676 12.0953 17.9676 10.6475C17.9652 8.70678 17.1933 6.84624 15.821 5.47395C14.4487 4.10167 12.5882 3.32969 10.6475 3.32734Z" fill="#F4F5F5"/>
<path d="M10.6474 15.4921C9.68926 15.4921 8.75261 15.208 7.95591 14.6756C7.15922 14.1433 6.53828 13.3867 6.1716 12.5014C5.80493 11.6162 5.70899 10.6421 5.89592 9.70236C6.08285 8.7626 6.54425 7.89937 7.22178 7.22184C7.89931 6.54431 8.76254 6.08291 9.7023 5.89598C10.6421 5.70905 11.6161 5.80499 12.5014 6.17166C13.3866 6.53834 14.1432 7.15928 14.6756 7.95597C15.2079 8.75267 15.492 9.68932 15.492 10.6475C15.4897 11.9316 14.9785 13.1625 14.0705 14.0706C13.1625 14.9786 11.9316 15.4898 10.6474 15.4921ZM10.6474 7.09833C9.94548 7.09833 9.25928 7.30649 8.67563 7.69647C8.09197 8.08646 7.63706 8.64076 7.36844 9.28929C7.09981 9.93781 7.02952 10.6514 7.16647 11.3399C7.30341 12.0284 7.64144 12.6608 8.1378 13.1571C8.63416 13.6535 9.26656 13.9915 9.95503 14.1285C10.6435 14.2654 11.3571 14.1951 12.0056 13.9265C12.6542 13.6579 13.2085 13.203 13.5985 12.6193C13.9884 12.0356 14.1966 11.3495 14.1966 10.6475C14.1966 9.7062 13.8227 8.80345 13.1571 8.13786C12.4915 7.47226 11.5887 7.09833 10.6474 7.09833Z" fill="#F4F5F5"/>
<path d="M18.6331 11.3129H2.66187C2.48537 11.3129 2.31611 11.2428 2.19131 11.118C2.06651 10.9932 1.9964 10.824 1.9964 10.6475C1.9964 10.471 2.06651 10.3017 2.19131 10.1769C2.31611 10.0521 2.48537 9.98199 2.66187 9.98199H18.6331C18.8096 9.98199 18.9788 10.0521 19.1036 10.1769C19.2284 10.3017 19.2986 10.471 19.2986 10.6475C19.2986 10.824 19.2284 10.9932 19.1036 11.118C18.9788 11.2428 18.8096 11.3129 18.6331 11.3129Z" fill="#F4F5F5"/>
<path d="M10.6475 19.2986C10.4717 19.2963 10.3038 19.2254 10.1795 19.1011C10.0552 18.9768 9.98432 18.8089 9.98203 18.6331V2.66187C9.98203 2.48537 10.0521 2.31611 10.1769 2.19131C10.3017 2.06651 10.471 1.9964 10.6475 1.9964C10.824 1.9964 10.9932 2.06651 11.118 2.19131C11.2428 2.31611 11.313 2.48537 11.313 2.66187V18.6331C11.3107 18.8089 11.2398 18.9768 11.1155 19.1011C10.9912 19.2254 10.8233 19.2963 10.6475 19.2986Z" fill="#F4F5F5"/>
</svg>
