<svg width="180" height="179" viewBox="0 0 180 179" fill="none" xmlns="http://www.w3.org/2000/svg">
<g clip-path="url(#clip0_49_2)">
<path fill-rule="evenodd" clip-rule="evenodd" d="M146.567 120.743L110.401 86.4241L94.0148 49.9283V105.89L129.871 139.917C118.95 148.335 105.237 153.345 90.3464 153.345C75.4556 153.345 61.743 148.331 50.8214 139.917L86.678 105.89V49.9325L70.2914 86.4283L34.1257 120.747C28.8237 111.434 25.7945 100.676 25.7945 89.2109C25.7945 70.9735 33.453 54.5159 45.7492 42.8381L29.9016 23.3472C11.9733 39.6585 0.72168 63.127 0.72168 89.2109C0.72168 138.479 40.8441 178.418 90.3422 178.418C139.836 178.418 179.963 138.479 179.963 89.2109C179.963 63.127 168.715 39.6585 150.783 23.3472L134.935 42.8381C147.231 54.5159 154.89 70.9735 154.89 89.2109C154.898 100.672 151.869 111.43 146.567 120.743Z" fill="#575756"/>
<path fill-rule="evenodd" clip-rule="evenodd" d="M90.3463 0C111.17 0 130.335 7.07355 145.552 18.931L129.733 38.3927C118.837 30.0406 105.179 25.0687 90.3504 25.0687C75.5223 25.0687 61.864 30.0406 50.9634 38.3927L35.145 18.931C50.3575 7.07355 69.5225 0 90.3463 0Z" fill="#EF7D00"/>
</g>
<defs>
<clipPath id="clip0_49_2">
<rect width="180" height="179" fill="white"/>
</clipPath>
</defs>
</svg>
