<svg width="25" height="24" viewBox="0 0 25 24" fill="none" xmlns="http://www.w3.org/2000/svg">
<path fill-rule="evenodd" clip-rule="evenodd" d="M19.6186 16.2418L14.7537 11.6254L12.5494 6.7161V14.2438L17.3727 18.821C15.9036 19.9534 14.059 20.6273 12.056 20.6273C10.0529 20.6273 8.20835 19.9529 6.73922 18.821L11.5625 14.2438V6.71666L9.35825 11.6259L4.49338 16.2424C3.78017 14.9896 3.3727 13.5424 3.3727 12.0002C3.3727 9.54701 4.40289 7.3332 6.05693 5.76234L3.92517 3.1405C1.51353 5.33464 0 8.49153 0 12.0002C0 18.6276 5.39711 24 12.0554 24C18.7131 24 24.1108 18.6276 24.1108 12.0002C24.1108 8.49153 22.5978 5.33464 20.1856 3.1405L18.0539 5.76234C19.7079 7.3332 20.7381 9.54701 20.7381 12.0002C20.7392 13.5419 20.3318 14.9891 19.6186 16.2418Z" fill="white"/>
<path fill-rule="evenodd" clip-rule="evenodd" d="M12.0561 0C14.8572 0 17.4352 0.951506 19.4821 2.54653L17.3543 5.16443C15.8885 4.04095 14.0513 3.37214 12.0566 3.37214C10.062 3.37214 8.22475 4.04095 6.75844 5.16443L4.63062 2.54653C6.67694 0.951506 9.25494 0 12.0561 0Z" fill="#EF7D00"/>
</svg>
