<svg width="34" height="33" viewBox="0 0 34 33" fill="none" xmlns="http://www.w3.org/2000/svg">
<path d="M19.6987 32.7273H24.7111C29.3134 32.7273 33.0954 28.9452 33.0954 24.343V8.38432C33.0954 3.78205 29.3134 0 24.7111 0H19.5975C19.4962 0 19.3899 0.10125 19.3899 0.2025V32.5248C19.3899 32.626 19.4911 32.7273 19.6987 32.7273ZM25.9363 14.7283C27.7793 14.7283 29.207 16.2624 29.207 17.999C29.207 19.8419 27.6729 21.2697 25.9363 21.2697C24.0934 21.2697 22.6657 19.8419 22.6657 17.999C22.5593 16.1611 24.0934 14.7283 25.9363 14.7283ZM15.9116 0H8.75248C4.15021 0 0.368164 3.78205 0.368164 8.38432V24.343C0.368164 28.9452 4.15021 32.7273 8.75248 32.7273H15.9116C16.0128 32.7273 16.1192 32.626 16.1192 32.5248V0.2025C16.1192 0.10125 16.0179 0 15.9116 0ZM13.5624 30.0692H8.75248C8.00016 30.0704 7.255 29.9231 6.55971 29.6358C5.86442 29.3484 5.23268 28.9267 4.70071 28.3947C4.16874 27.8628 3.74699 27.231 3.45965 26.5357C3.17231 25.8404 3.02502 25.0953 3.02623 24.343V8.38432C3.02502 7.632 3.17231 6.88683 3.45965 6.19154C3.74699 5.49626 4.16874 4.86452 4.70071 4.33254C5.23268 3.80057 5.86442 3.37883 6.55971 3.09148C7.255 2.80414 8.00016 2.65686 8.75248 2.65807H13.4611L13.5624 30.0692ZM5.4818 9.81716C5.4818 11.5538 6.81339 12.8853 8.54998 12.8853C10.2866 12.8853 11.6182 11.5538 11.6182 9.81716C11.6182 8.08057 10.2866 6.74898 8.54998 6.74898C6.81339 6.74898 5.4818 8.08057 5.4818 9.81716Z" fill="white"/>
</svg>
