<svg width="25" height="24" viewBox="0 0 25 24" fill="none" xmlns="http://www.w3.org/2000/svg">
<path fill-rule="evenodd" clip-rule="evenodd" d="M19.536 16.1736L14.6916 11.5765L12.4966 6.6879V14.184L17.2996 18.7418C15.8367 19.8696 13.9999 20.5406 12.0053 20.5406C10.0106 20.5406 8.17382 19.869 6.71087 18.7418L11.5139 14.184V6.68846L9.31889 11.5771L4.47448 16.1741C3.76427 14.9266 3.35852 13.4855 3.35852 11.9498C3.35852 9.50691 4.38437 7.30241 6.03145 5.73816L3.90866 3.12735C1.50716 5.31226 0 8.45587 0 11.9498C0 18.5493 5.37441 23.8991 12.0047 23.8991C18.6344 23.8991 24.0094 18.5493 24.0094 11.9498C24.0094 8.45587 22.5028 5.31226 20.1007 3.12735L17.9779 5.73816C19.625 7.30241 20.6509 9.50691 20.6509 11.9498C20.652 13.485 20.2462 14.9261 19.536 16.1736Z" fill="white"/>
<path fill-rule="evenodd" clip-rule="evenodd" d="M12.0053 0C14.7946 0 17.3618 0.947503 19.4001 2.53582L17.2812 5.14271C15.8216 4.02395 13.9921 3.35796 12.0058 3.35796C10.0196 3.35796 8.19008 4.02395 6.72993 5.14271L4.61106 2.53582C6.64878 0.947503 9.21594 0 12.0053 0Z" fill="white"/>
</svg>
