<svg width="43" height="33" viewBox="0 0 43 33" fill="none" xmlns="http://www.w3.org/2000/svg">
<path d="M42.3946 25.047C41.5651 26.0938 39.535 26.8385 39.535 26.8385L24.4395 32.2608V28.2617L35.5491 24.3049C36.8106 23.8544 37.0041 23.2131 35.9785 22.8791C34.9555 22.5426 33.103 22.6406 31.8442 23.0912L24.4395 25.6989V21.5487L24.8662 21.4056C24.8662 21.4056 27.0049 20.6477 30.0129 20.3138C33.0209 19.9825 36.7046 20.3588 39.596 21.4533C42.8557 22.4869 43.2215 24.0028 42.3946 25.047ZM25.8759 18.2413V8.01154C25.8759 6.811 25.656 5.70587 24.5296 5.39315C23.6657 5.11488 23.1303 5.91789 23.1303 7.11578V32.7273L16.2239 30.5356V0C19.1603 0.54594 23.4377 1.83394 25.7381 2.61044C31.5871 4.61664 33.5694 7.11578 33.5694 12.7474C33.5694 18.236 30.1825 20.3164 25.8759 18.2386V18.2413ZM3.55068 27.8483C0.206129 26.8995 -0.350412 24.9383 1.17345 23.8094C2.58335 22.7652 4.97913 21.9807 4.97913 21.9807L14.8829 18.456V22.471L7.75389 25.0232C6.49769 25.4737 6.30423 26.1124 7.32721 26.449C8.35018 26.7829 10.2027 26.6875 11.4615 26.2369L14.8803 24.994V28.5877L14.1992 28.7016C10.6326 29.2791 6.97923 28.9854 3.55068 27.8456V27.8483Z" fill="white"/>
</svg>
