<svg width="34" height="33" viewBox="0 0 34 33" fill="none" xmlns="http://www.w3.org/2000/svg">
<path d="M7.61727 2.81455C7.73181 2.71636 7.84636 2.61818 7.92818 2.55273C10.4809 0.9 13.4591 0 16.7318 0C19.8082 0 22.6882 0.818182 25.1427 2.32364C25.3227 2.45455 25.7973 2.76545 26.0591 3.07636C23.6864 0.458182 16.7318 6.05454 16.7318 6.05454C14.2773 4.20545 12.1009 2.94545 10.4482 2.45455C9.05727 2.11091 8.10818 2.45455 7.66636 2.78182L7.61727 2.81455ZM28.7427 5.25273C28.6609 5.17091 28.5791 5.08909 28.5136 5.00727C27.9245 4.35273 27.1718 4.18909 26.55 4.23818C25.9118 4.43455 23.1136 5.43273 19.6773 8.68909C19.6773 8.68909 23.5555 12.4527 25.9282 16.2982C28.3009 20.1436 29.7082 23.1709 28.8409 27.3764C31.4591 24.4636 33.0955 20.6018 33.0955 16.3636C33.0955 12.0764 31.4591 8.18182 28.7427 5.25273ZM22.8354 17.9345C21.7718 16.7564 20.2173 15.0709 18.1391 13.0091C17.6973 12.5673 17.2227 12.1091 16.7318 11.6182C16.7318 11.6182 15.9627 12.3709 14.9809 13.3691C13.7209 14.6291 12.1009 16.2818 11.1845 17.2473C9.5809 18.9655 4.96636 24.3655 4.70454 27.3927C4.70454 27.3927 3.64091 25.0036 5.93181 19.4564C7.40454 15.84 11.8227 10.4073 13.7045 8.64C13.7045 8.64 12.0191 6.77455 9.89181 5.48182L9.81 5.43273C8.77909 4.82727 7.66636 4.35273 6.58636 4.28727C5.49 4.36909 4.80272 5.17091 4.80272 5.17091C1.94938 8.19858 0.362707 12.2033 0.368178 16.3636C0.368178 20.7035 2.0922 24.8657 5.16098 27.9345C6.68048 29.454 8.48439 30.6593 10.4697 31.4817C12.455 32.304 14.5829 32.7273 16.7318 32.7273C21.5264 32.7273 25.8464 30.6655 28.8409 27.3764C28.8409 27.3764 28.4973 25.2 26.2882 22.0909C25.7809 21.3873 23.8827 19.1291 22.8354 17.9345Z" fill="white"/>
</svg>
